<svg width="203" height="59" viewBox="0 0 203 59" fill="none" xmlns="http://www.w3.org/2000/svg">
<path d="M21.86 42.468C20.156 42.468 18.554 42.132 17.054 41.46C15.554 40.776 14.234 39.834 13.094 38.634C11.954 37.434 11.06 36.048 10.412 34.476C9.764 32.892 9.44 31.2 9.44 29.4C9.44 27.6 9.764 25.914 10.412 24.342C11.06 22.758 11.954 21.366 13.094 20.166C14.234 18.966 15.554 18.03 17.054 17.358C18.554 16.674 20.156 16.332 21.86 16.332C23.576 16.332 25.184 16.674 26.684 17.358C28.184 18.03 29.504 18.966 30.644 20.166C31.784 21.366 32.672 22.758 33.308 24.342C33.956 25.914 34.28 27.6 34.28 29.4C34.28 31.2 33.956 32.892 33.308 34.476C32.672 36.048 31.784 37.434 30.644 38.634C29.504 39.834 28.184 40.776 26.684 41.46C25.184 42.132 23.576 42.468 21.86 42.468ZM21.86 39.948C23.24 39.948 24.524 39.672 25.712 39.12C26.912 38.556 27.962 37.788 28.862 36.816C29.774 35.844 30.482 34.722 30.986 33.45C31.502 32.178 31.76 30.828 31.76 29.4C31.76 27.96 31.502 26.604 30.986 25.332C30.47 24.048 29.756 22.926 28.844 21.966C27.944 20.994 26.894 20.232 25.694 19.68C24.506 19.128 23.228 18.852 21.86 18.852C20.48 18.852 19.19 19.134 17.99 19.698C16.802 20.25 15.752 21.012 14.84 21.984C13.94 22.956 13.232 24.078 12.716 25.35C12.212 26.622 11.96 27.972 11.96 29.4C11.96 30.852 12.218 32.214 12.734 33.486C13.25 34.758 13.958 35.88 14.858 36.852C15.77 37.824 16.82 38.586 18.008 39.138C19.208 39.678 20.492 39.948 21.86 39.948ZM53.4888 30.858V42H50.9688V31.362C50.9688 30.378 50.7288 29.484 50.2488 28.68C49.7688 27.876 49.1268 27.234 48.3228 26.754C47.5188 26.274 46.6248 26.034 45.6408 26.034C44.6688 26.034 43.7748 26.274 42.9588 26.754C42.1548 27.234 41.5128 27.876 41.0328 28.68C40.5528 29.484 40.3128 30.378 40.3128 31.362V42H37.7928V24H40.3128V26.484C40.9488 25.572 41.7768 24.846 42.7968 24.306C43.8168 23.766 44.9268 23.496 46.1268 23.496C47.4828 23.496 48.7188 23.826 49.8348 24.486C50.9508 25.146 51.8388 26.034 52.4988 27.15C53.1588 28.266 53.4888 29.502 53.4888 30.858ZM57.3397 42V15H59.8597V42H57.3397ZM64.1952 24H66.7152V42H64.1952V24ZM65.4732 20.85C65.0652 20.85 64.7172 20.718 64.4292 20.454C64.1532 20.178 64.0152 19.836 64.0152 19.428C64.0152 19.02 64.1532 18.684 64.4292 18.42C64.7172 18.144 65.0652 18.006 65.4732 18.006C65.8692 18.006 66.2052 18.144 66.4812 18.42C66.7692 18.684 66.9132 19.02 66.9132 19.428C66.9132 19.836 66.7752 20.178 66.4992 20.454C66.2232 20.718 65.8812 20.85 65.4732 20.85ZM86.6763 30.858V42H84.1563V31.362C84.1563 30.378 83.9163 29.484 83.4363 28.68C82.9563 27.876 82.3143 27.234 81.5103 26.754C80.7063 26.274 79.8123 26.034 78.8283 26.034C77.8563 26.034 76.9623 26.274 76.1463 26.754C75.3423 27.234 74.7003 27.876 74.2203 28.68C73.7403 29.484 73.5003 30.378 73.5003 31.362V42H70.9803V24H73.5003V26.484C74.1363 25.572 74.9643 24.846 75.9843 24.306C77.0043 23.766 78.1143 23.496 79.3143 23.496C80.6703 23.496 81.9063 23.826 83.0223 24.486C84.1383 25.146 85.0263 26.034 85.6863 27.15C86.3463 28.266 86.6763 29.502 86.6763 30.858ZM97.8495 42.468C96.1935 42.468 94.6815 42.042 93.3135 41.19C91.9575 40.338 90.8715 39.198 90.0555 37.77C89.2515 36.33 88.8495 34.74 88.8495 33C88.8495 31.68 89.0835 30.45 89.5515 29.31C90.0195 28.158 90.6615 27.15 91.4775 26.286C92.3055 25.41 93.2655 24.726 94.3575 24.234C95.4495 23.742 96.6135 23.496 97.8495 23.496C99.1815 23.496 100.406 23.76 101.522 24.288C102.65 24.816 103.616 25.554 104.42 26.502C105.236 27.45 105.848 28.56 106.256 29.832C106.676 31.104 106.85 32.478 106.778 33.954H91.5135C91.6575 35.094 92.0175 36.114 92.5935 37.014C93.1815 37.914 93.9255 38.628 94.8255 39.156C95.7375 39.672 96.7455 39.936 97.8495 39.948C99.0495 39.948 100.13 39.636 101.09 39.012C102.062 38.388 102.842 37.53 103.43 36.438L105.986 37.032C105.266 38.628 104.18 39.936 102.728 40.956C101.276 41.964 99.6495 42.468 97.8495 42.468ZM91.4415 31.92H104.24C104.156 30.804 103.814 29.784 103.214 28.86C102.626 27.924 101.864 27.18 100.928 26.628C99.9915 26.064 98.9655 25.782 97.8495 25.782C96.7335 25.782 95.7135 26.058 94.7895 26.61C93.8655 27.15 93.1095 27.888 92.5215 28.824C91.9335 29.748 91.5735 30.78 91.4415 31.92Z" fill="#56B946"/>
<path d="M119.111 42.468C117.719 42.468 116.381 42.252 115.097 41.82C113.825 41.376 112.709 40.746 111.749 39.93C110.789 39.102 110.099 38.112 109.679 36.96L113.801 35.448C113.969 35.928 114.311 36.366 114.827 36.762C115.343 37.158 115.973 37.476 116.717 37.716C117.461 37.956 118.259 38.076 119.111 38.076C119.987 38.076 120.803 37.944 121.559 37.68C122.327 37.404 122.945 37.026 123.413 36.546C123.881 36.054 124.115 35.484 124.115 34.836C124.115 34.176 123.869 33.636 123.377 33.216C122.885 32.784 122.255 32.442 121.487 32.19C120.719 31.938 119.927 31.746 119.111 31.614C117.323 31.338 115.721 30.912 114.305 30.336C112.889 29.76 111.767 28.962 110.939 27.942C110.123 26.922 109.715 25.602 109.715 23.982C109.715 22.458 110.153 21.126 111.029 19.986C111.905 18.846 113.057 17.958 114.485 17.322C115.913 16.686 117.455 16.368 119.111 16.368C120.491 16.368 121.823 16.584 123.107 17.016C124.391 17.448 125.513 18.078 126.473 18.906C127.445 19.734 128.141 20.73 128.561 21.894L124.421 23.388C124.253 22.908 123.911 22.47 123.395 22.074C122.879 21.678 122.249 21.366 121.505 21.138C120.761 20.898 119.963 20.778 119.111 20.778C118.259 20.766 117.449 20.904 116.681 21.192C115.925 21.468 115.307 21.846 114.827 22.326C114.347 22.806 114.107 23.358 114.107 23.982C114.107 24.786 114.329 25.392 114.773 25.8C115.229 26.208 115.835 26.508 116.591 26.7C117.347 26.88 118.187 27.048 119.111 27.204C120.791 27.468 122.345 27.912 123.773 28.536C125.201 29.16 126.347 29.994 127.211 31.038C128.075 32.07 128.507 33.336 128.507 34.836C128.507 36.36 128.075 37.698 127.211 38.85C126.347 39.99 125.201 40.878 123.773 41.514C122.345 42.15 120.791 42.468 119.111 42.468ZM141.73 28.392H138.238V42H133.846V28.392H131.182V24H133.846V18.348H138.238V24H141.73V28.392ZM152.482 42.468C150.826 42.468 149.314 42.042 147.946 41.19C146.59 40.338 145.504 39.198 144.688 37.77C143.884 36.33 143.482 34.74 143.482 33C143.482 31.68 143.716 30.45 144.184 29.31C144.652 28.158 145.294 27.15 146.11 26.286C146.938 25.41 147.898 24.726 148.99 24.234C150.082 23.742 151.246 23.496 152.482 23.496C154.138 23.496 155.644 23.922 157 24.774C158.368 25.626 159.454 26.772 160.258 28.212C161.074 29.652 161.482 31.248 161.482 33C161.482 34.308 161.248 35.532 160.78 36.672C160.312 37.812 159.664 38.82 158.836 39.696C158.02 40.56 157.066 41.238 155.974 41.73C154.894 42.222 153.73 42.468 152.482 42.468ZM152.482 38.076C153.358 38.076 154.144 37.842 154.84 37.374C155.536 36.906 156.082 36.288 156.478 35.52C156.886 34.752 157.09 33.912 157.09 33C157.09 32.064 156.88 31.212 156.46 30.444C156.052 29.664 155.494 29.046 154.786 28.59C154.09 28.122 153.322 27.888 152.482 27.888C151.618 27.888 150.838 28.122 150.142 28.59C149.446 29.058 148.894 29.682 148.486 30.462C148.078 31.242 147.874 32.088 147.874 33C147.874 33.948 148.084 34.806 148.504 35.574C148.924 36.342 149.482 36.954 150.178 37.41C150.886 37.854 151.654 38.076 152.482 38.076ZM164.303 42L164.285 24H168.677L168.695 25.602C169.307 24.954 170.039 24.444 170.891 24.072C171.743 23.688 172.661 23.496 173.645 23.496C174.305 23.496 174.965 23.592 175.625 23.784L173.897 28.212C173.441 28.032 172.985 27.942 172.529 27.942C171.821 27.942 171.173 28.116 170.585 28.464C170.009 28.8 169.547 29.262 169.199 29.85C168.863 30.426 168.695 31.068 168.695 31.776V42H164.303ZM184.721 42.468C183.065 42.468 181.553 42.042 180.185 41.19C178.829 40.338 177.743 39.192 176.927 37.752C176.123 36.312 175.721 34.722 175.721 32.982C175.721 31.674 175.955 30.45 176.423 29.31C176.891 28.158 177.533 27.15 178.349 26.286C179.177 25.41 180.137 24.726 181.229 24.234C182.321 23.742 183.485 23.496 184.721 23.496C186.125 23.496 187.409 23.796 188.573 24.396C189.749 24.984 190.745 25.794 191.561 26.826C192.377 27.858 192.971 29.034 193.343 30.354C193.715 31.674 193.799 33.054 193.595 34.494H180.437C180.605 35.166 180.881 35.772 181.265 36.312C181.649 36.84 182.135 37.266 182.723 37.59C183.311 37.902 183.977 38.064 184.721 38.076C185.489 38.088 186.185 37.908 186.809 37.536C187.445 37.152 187.973 36.636 188.393 35.988L192.875 37.032C192.143 38.628 191.051 39.936 189.599 40.956C188.147 41.964 186.521 42.468 184.721 42.468ZM180.293 31.2H189.149C189.017 30.48 188.735 29.832 188.303 29.256C187.883 28.668 187.361 28.2 186.737 27.852C186.113 27.504 185.441 27.33 184.721 27.33C184.001 27.33 183.335 27.504 182.723 27.852C182.111 28.188 181.589 28.65 181.157 29.238C180.737 29.814 180.449 30.468 180.293 31.2Z" fill="black"/>
<rect x="0.5" y="0.5" width="202" height="58" stroke="black"/>
</svg>
